<?xml version="1.0" encoding="UTF-8"?>
<svg id="Layer_1" data-name="Layer 1" xmlns="http://www.w3.org/2000/svg" viewBox="0 0 475 475">
  <defs>
    <style>
      .cls-1 {
        fill: none;
        stroke: #9a8432;
      }

      .cls-1, .cls-2 {
        stroke-miterlimit: 10;
        stroke-width: 5px;
      }

      .cls-3 {
        fill: #213463;
      }

      .cls-2 {
        fill: #fff;
        stroke: #1c3664;
      }

      .cls-4 {
        fill: #9a8432;
      }
    </style>
  </defs>
  <circle id="globe" class="cls-3" cx="237.5" cy="237.5" r="237.5"/>
  <g id="net">
    <g id="ropes">
      <path class="cls-1" d="M261.14,451.13c-125.2-54.45-203.35-125.38-238.55-207.25"/>
      <path class="cls-1" d="M105.23,405.86c117.04-38.62,294.89-154.07,338.07-230.78"/>
      <path class="cls-1" d="M319.82,435.76c-76.28,1.17-281.81-206.11-280.96-280.87"/>
      <path class="cls-1" d="M37.91,320.76c94.73-3.34,280.74-91.99,374.48-208.71"/>
      <path class="cls-1" d="M377.32,401.04c-75.07-9.69-292.96-233.81-299.82-308.07"/>
      <path class="cls-1" d="M333.86,46.01C296.71,38.97,34.51,227.33,24.02,240.78"/>
      <path class="cls-1" d="M132.12,53.17c99.39,50.94,326.67,204.17,320.32,193.83"/>
      <path class="cls-1" d="M153.49,39.53c-121.08,59.87-127.25,333.9-9.24,391.75"/>
      <path class="cls-1" d="M320.53,38.87c116.09,64.75,119.16,334.87-4.98,399.23"/>
      <path class="cls-1" d="M245.5,22.5c144.33,37.44,141.7,388.02,15.64,428.63"/>
      <path class="cls-1" d="M229.5,22.5c-144.77,35.29-142,366.96-22.38,428.25"/>
      <path class="cls-1" d="M207.12,450.75c46.74-3.07,194.45-117.81,245.33-208.8"/>
    </g>
    <circle id="outer_circle" data-name="outer circle" class="cls-1" cx="237.5" cy="237.5" r="215"/>
    <g id="knots">
      <circle class="cls-4" cx="399.38" cy="312.26" r="7.5"/>
      <circle class="cls-4" cx="391.88" cy="136.03" r="7.5"/>
      <circle class="cls-4" cx="68.12" cy="317.43" r="7.5"/>
      <circle class="cls-4" cx="328.12" cy="379.27" r="7.5"/>
      <circle class="cls-4" cx="196.56" cy="365.38" r="7.5"/>
      <circle class="cls-4" cx="272.52" cy="420.49" r="7.5"/>
      <circle class="cls-4" cx="124.63" cy="300.34" r="7.5"/>
      <circle class="cls-4" cx="60.3" cy="212.83" r="7.5"/>
      <circle class="cls-4" cx="85" cy="117.17" r="7.5"/>
      <circle class="cls-4" cx="202.19" cy="269.96" r="7.5"/>
      <circle class="cls-4" cx="260.61" cy="329.51" r="7.5"/>
      <path class="cls-4" d="M156.87,388.36c0,4.14-3.36,7.5-7.5,7.5-4.14,0-7.5-3.36-7.5-7.5,0-4.14,3.36-7.5,7.5-7.5,4.14,0,7.5,3.36,7.5,7.5Z"/>
      <path class="cls-4" d="M361.3,267.61c0,4.14-3.36,7.5-7.5,7.5-4.14,0-7.5-3.36-7.5-7.5s3.36-7.5,7.5-7.5c4.14,0,7.5,3.36,7.5,7.5Z"/>
      <path class="cls-4" d="M414.98,219.23c0,4.14-3.36,7.5-7.5,7.5-4.14,0-7.5-3.36-7.5-7.5s3.36-7.5,7.5-7.5c4.14,0,7.5,3.36,7.5,7.5Z"/>
      <path class="cls-4" d="M171.87,69.71c0,4.14-3.36,7.5-7.5,7.5-4.14,0-7.5-3.36-7.5-7.5s3.36-7.5,7.5-7.5c4.14,0,7.5,3.36,7.5,7.5Z"/>
      <path class="cls-4" d="M129.07,169.88c0,4.14-3.36,7.5-7.5,7.5-4.14,0-7.5-3.36-7.5-7.5s3.36-7.5,7.5-7.5c4.14,0,7.5,3.36,7.5,7.5Z"/>
      <path class="cls-4" d="M306.39,57.5c0,4.14-3.36,7.5-7.5,7.5-4.14,0-7.5-3.36-7.5-7.5s3.36-7.5,7.5-7.5c4.14,0,7.5,3.36,7.5,7.5Z"/>
    </g>
  </g>
  <polygon id="cross" class="cls-2" points="362.5 169.5 255.5 169.5 255.5 67.5 219.5 67.5 219.5 169.5 112.5 169.5 112.5 205.5 219.5 205.5 219.5 367.5 255.5 367.5 255.5 205.5 362.5 205.5 362.5 169.5"/>
</svg>